<svg width="1440" height="720" viewBox="0 0 1440 720" fill="none" xmlns="http://www.w3.org/2000/svg">
  <rect width="1440" height="720" fill="#F7FAFC"/>
  <rect x="64" y="58" width="1312" height="604" rx="30" fill="#FFFFFF" stroke="#D8E0EA" stroke-width="2"/>
  <text x="104" y="130" fill="#111827" font-family="Arial, sans-serif" font-size="42" font-weight="700">tandm iOS Product Map</text>
  <text x="104" y="170" fill="#526174" font-family="Arial, sans-serif" font-size="20">Contributor-friendly SwiftUI and Firebase build log for freelance collectives.</text>
  <g font-family="Arial, sans-serif" font-size="21" font-weight="700">
    <rect x="122" y="252" width="210" height="88" rx="18" fill="#FFF7ED" stroke="#FB923C"/>
    <text x="165" y="304" fill="#9A3412">Auth</text>
    <rect x="398" y="252" width="210" height="88" rx="18" fill="#ECFDF5" stroke="#34D399"/>
    <text x="442" y="304" fill="#065F46">Profile</text>
    <rect x="674" y="252" width="210" height="88" rx="18" fill="#EFF6FF" stroke="#60A5FA"/>
    <text x="707" y="304" fill="#1E40AF">Collectives</text>
    <rect x="950" y="252" width="210" height="88" rx="18" fill="#F5F3FF" stroke="#A78BFA"/>
    <text x="1003" y="304" fill="#5B21B6">Projects</text>
  </g>
  <g font-family="Arial, sans-serif" font-size="21" font-weight="700">
    <rect x="312" y="438" width="250" height="88" rx="18" fill="#F8FAFC" stroke="#94A3B8"/>
    <text x="388" y="490" fill="#334155">Tasks</text>
    <rect x="636" y="438" width="250" height="88" rx="18" fill="#FEF2F2" stroke="#F87171"/>
    <text x="704" y="490" fill="#991B1B">Invoices</text>
    <rect x="960" y="438" width="250" height="88" rx="18" fill="#F0FDFA" stroke="#2DD4BF"/>
    <text x="1029" y="490" fill="#115E59">Firebase</text>
  </g>
  <g stroke="#CBD5E1" stroke-width="4" stroke-linecap="round">
    <path d="M332 296H398"/>
    <path d="M608 296H674"/>
    <path d="M884 296H950"/>
    <path d="M779 340V390H437V438"/>
    <path d="M779 340V438"/>
    <path d="M779 340V390H1085V438"/>
  </g>
  <text x="104" y="604" fill="#526174" font-family="Arial, sans-serif" font-size="18">Current public state: source and Firebase-backed app slices are visible; full external build setup needs the Xcode project or package manifest before broad contributor onboarding.</text>
</svg>
